<?xml version="1.0" encoding="UTF-8" standalone="no"?>
<!DOCTYPE svg PUBLIC "-//W3C//DTD SVG 1.1//EN"
 "http://www.w3.org/Graphics/SVG/1.1/DTD/svg11.dtd">
<!-- Generated by graphviz version 2.43.0 (0)
 -->
<!-- Title: %3 Pages: 1 -->
<svg width="242pt" height="274pt"
 viewBox="0.00 0.00 242.00 274.00" xmlns="http://www.w3.org/2000/svg" xmlns:xlink="http://www.w3.org/1999/xlink">
<g id="graph0" class="graph" transform="scale(1 1) rotate(0) translate(4 270)">
<title>%3</title>
<polygon fill="white" stroke="transparent" points="-4,4 -4,-270 238,-270 238,4 -4,4"/>
<!-- customer_orders -->
<g id="node1" class="node">
<title>customer_orders</title>
<path fill="#e8f5e8" stroke="black" d="M222,-118C222,-118 139,-118 139,-118 133,-118 127,-112 127,-106 127,-106 127,-17 127,-17 127,-11 133,-5 139,-5 139,-5 222,-5 222,-5 228,-5 234,-11 234,-17 234,-17 234,-106 234,-106 234,-112 228,-118 222,-118"/>
<text text-anchor="middle" x="180.5" y="-102.8" font-family="Times,serif" font-size="14.00">customer_orders</text>
<text text-anchor="middle" x="180.5" y="-87.8" font-family="Times,serif" font-size="14.00">Type: cte</text>
<text text-anchor="middle" x="180.5" y="-72.8" font-family="Times,serif" font-size="14.00">Columns:</text>
<text text-anchor="middle" x="180.5" y="-57.8" font-family="Times,serif" font-size="14.00">customer_id</text>
<text text-anchor="middle" x="180.5" y="-42.8" font-family="Times,serif" font-size="14.00">customer_name</text>
<text text-anchor="middle" x="180.5" y="-27.8" font-family="Times,serif" font-size="14.00">order_count</text>
<text text-anchor="middle" x="180.5" y="-12.8" font-family="Times,serif" font-size="14.00">... (+1 more)</text>
</g>
<!-- orders -->
<g id="node2" class="node">
<title>orders</title>
<path fill="#e3f2fd" stroke="black" d="M72,-124C72,-124 19,-124 19,-124 13,-124 7,-118 7,-112 7,-112 7,-83 7,-83 7,-77 13,-71 19,-71 19,-71 72,-71 72,-71 78,-71 84,-77 84,-83 84,-83 84,-112 84,-112 84,-118 78,-124 72,-124"/>
<text text-anchor="middle" x="45.5" y="-108.8" font-family="Times,serif" font-size="14.00">o</text>
<text text-anchor="middle" x="45.5" y="-93.8" font-family="Times,serif" font-size="14.00">(orders)</text>
<text text-anchor="middle" x="45.5" y="-78.8" font-family="Times,serif" font-size="14.00">Type: table</text>
</g>
<!-- orders&#45;&gt;customer_orders -->
<g id="edge1" class="edge">
<title>orders&#45;&gt;customer_orders</title>
<path fill="none" stroke="#388e3c" d="M84.26,-87.28C94.47,-84.51 105.81,-81.45 117,-78.42"/>
<polygon fill="#388e3c" stroke="#388e3c" points="118.02,-81.77 126.76,-75.78 116.19,-75.01 118.02,-81.77"/>
</g>
<!-- order_items -->
<g id="node3" class="node">
<title>order_items</title>
<path fill="#e3f2fd" stroke="black" d="M79,-195C79,-195 12,-195 12,-195 6,-195 0,-189 0,-183 0,-183 0,-154 0,-154 0,-148 6,-142 12,-142 12,-142 79,-142 79,-142 85,-142 91,-148 91,-154 91,-154 91,-183 91,-183 91,-189 85,-195 79,-195"/>
<text text-anchor="middle" x="45.5" y="-179.8" font-family="Times,serif" font-size="14.00">oi</text>
<text text-anchor="middle" x="45.5" y="-164.8" font-family="Times,serif" font-size="14.00">(order_items)</text>
<text text-anchor="middle" x="45.5" y="-149.8" font-family="Times,serif" font-size="14.00">Type: table</text>
</g>
<!-- products -->
<g id="node4" class="node">
<title>products</title>
<path fill="#e3f2fd" stroke="black" d="M72,-266C72,-266 19,-266 19,-266 13,-266 7,-260 7,-254 7,-254 7,-225 7,-225 7,-219 13,-213 19,-213 19,-213 72,-213 72,-213 78,-213 84,-219 84,-225 84,-225 84,-254 84,-254 84,-260 78,-266 72,-266"/>
<text text-anchor="middle" x="45.5" y="-250.8" font-family="Times,serif" font-size="14.00">p</text>
<text text-anchor="middle" x="45.5" y="-235.8" font-family="Times,serif" font-size="14.00">(products)</text>
<text text-anchor="middle" x="45.5" y="-220.8" font-family="Times,serif" font-size="14.00">Type: table</text>
</g>
<!-- customers -->
<g id="node5" class="node">
<title>customers</title>
<path fill="#e3f2fd" stroke="black" d="M74,-53C74,-53 17,-53 17,-53 11,-53 5,-47 5,-41 5,-41 5,-12 5,-12 5,-6 11,0 17,0 17,0 74,0 74,0 80,0 86,-6 86,-12 86,-12 86,-41 86,-41 86,-47 80,-53 74,-53"/>
<text text-anchor="middle" x="45.5" y="-37.8" font-family="Times,serif" font-size="14.00">c</text>
<text text-anchor="middle" x="45.5" y="-22.8" font-family="Times,serif" font-size="14.00">(customers)</text>
<text text-anchor="middle" x="45.5" y="-7.8" font-family="Times,serif" font-size="14.00">Type: table</text>
</g>
<!-- customers&#45;&gt;customer_orders -->
<g id="edge2" class="edge">
<title>customers&#45;&gt;customer_orders</title>
<path fill="none" stroke="#388e3c" d="M86.04,-36.91C95.68,-39.44 106.22,-42.22 116.64,-44.96"/>
<polygon fill="#388e3c" stroke="#388e3c" points="116,-48.41 126.56,-47.57 117.78,-41.64 116,-48.41"/>
</g>
</g>
</svg>
