<?xml version="1.0" encoding="UTF-8" standalone="no"?>
<!DOCTYPE svg PUBLIC "-//W3C//DTD SVG 1.1//EN"
 "http://www.w3.org/Graphics/SVG/1.1/DTD/svg11.dtd">
<!-- Generated by graphviz version 2.43.0 (0)
 -->
<!-- Title: %3 Pages: 1 -->
<svg width="894pt" height="851pt"
 viewBox="0.00 0.00 894.00 851.00" xmlns="http://www.w3.org/2000/svg" xmlns:xlink="http://www.w3.org/1999/xlink">
<g id="graph0" class="graph" transform="scale(1 1) rotate(0) translate(4 847)">
<title>%3</title>
<polygon fill="white" stroke="transparent" points="-4,4 -4,-847 890,-847 890,4 -4,4"/>
<text text-anchor="middle" x="443" y="-827.8" font-family="Arial" font-size="14.00">SQL Query Diagram</text>
<text text-anchor="middle" x="443" y="-812.8" font-family="Arial" font-size="14.00">Very Complex Complexity | 13 Nodes | 21 Edges</text>
<g id="clust1" class="cluster">
<title>cluster_0</title>
<path fill="#f0f8f0" stroke="darkgreen" stroke-dasharray="5,2" d="M216,-531C216,-531 866,-531 866,-531 872,-531 878,-537 878,-543 878,-543 878,-785 878,-785 878,-791 872,-797 866,-797 866,-797 216,-797 216,-797 210,-797 204,-791 204,-785 204,-785 204,-543 204,-543 204,-537 210,-531 216,-531"/>
<text text-anchor="middle" x="541" y="-784.2" font-family="Arial" font-size="11.00" fill="darkgreen">CTE Level 0</text>
</g>
<!-- customer_metrics -->
<g id="node1" class="node">
<title>customer_metrics</title>
<path fill="#e8f5e8" stroke="#388e3c" stroke-width="2" d="M344,-769C344,-769 224,-769 224,-769 218,-769 212,-763 212,-757 212,-757 212,-695 212,-695 212,-689 218,-683 224,-683 224,-683 344,-683 344,-683 350,-683 356,-689 356,-695 356,-695 356,-757 356,-757 356,-763 350,-769 344,-769"/>
<text text-anchor="middle" x="284" y="-756.5" font-family="Arial" font-size="10.00">🔄 customer_metrics</text>
<text text-anchor="middle" x="284" y="-745.5" font-family="Arial" font-size="10.00">📋 customer_id</text>
<text text-anchor="middle" x="284" y="-734.5" font-family="Arial" font-size="10.00"> &#160;&#160;avg_order_value</text>
<text text-anchor="middle" x="284" y="-723.5" font-family="Arial" font-size="10.00"> &#160;&#160;total_orders</text>
<text text-anchor="middle" x="284" y="-712.5" font-family="Arial" font-size="10.00"> &#160;&#160;registration_date</text>
<text text-anchor="middle" x="284" y="-701.5" font-family="Arial" font-size="10.00"> &#160;&#160;... (+2)</text>
<text text-anchor="middle" x="284" y="-690.5" font-family="Arial" font-size="10.00">🔗 2 deps</text>
</g>
<!-- high_value_customers -->
<g id="node3" class="node">
<title>high_value_customers</title>
<path fill="#e8f5e8" stroke="#388e3c" stroke-width="2" d="M585,-768.5C585,-768.5 479,-768.5 479,-768.5 473,-768.5 467,-762.5 467,-756.5 467,-756.5 467,-695.5 467,-695.5 467,-689.5 473,-683.5 479,-683.5 479,-683.5 585,-683.5 585,-683.5 591,-683.5 597,-689.5 597,-695.5 597,-695.5 597,-756.5 597,-756.5 597,-762.5 591,-768.5 585,-768.5"/>
<text text-anchor="middle" x="532" y="-756.5" font-family="Arial" font-size="10.00">🔄 high_value_customers</text>
<text text-anchor="middle" x="532" y="-745.5" font-family="Arial" font-size="10.00">📋 customer_id</text>
<text text-anchor="middle" x="532" y="-734.5" font-family="Arial" font-size="10.00"> &#160;&#160;total_orders</text>
<text text-anchor="middle" x="532" y="-723.5" font-family="Arial" font-size="10.00"> &#160;&#160;customer_tier</text>
<text text-anchor="middle" x="532" y="-712.5" font-family="Arial" font-size="10.00"> &#160;&#160;customer_name</text>
<text text-anchor="middle" x="532" y="-701.5" font-family="Arial" font-size="10.00"> &#160;&#160;... (+1)</text>
<text text-anchor="middle" x="532" y="-690.5" font-family="Arial" font-size="10.00">🔗 1 deps</text>
</g>
<!-- customer_metrics&#45;&gt;high_value_customers -->
<g id="edge6" class="edge">
<title>customer_metrics&#45;&gt;high_value_customers</title>
<path fill="none" stroke="#388e3c" d="M356.07,-726C356.07,-726 458.95,-726 458.95,-726"/>
<polygon fill="#388e3c" stroke="#388e3c" points="458.95,-728.8 466.95,-726 458.95,-723.2 458.95,-728.8"/>
</g>
<!-- product_performance -->
<g id="node2" class="node">
<title>product_performance</title>
<path fill="#e8f5e8" stroke="#388e3c" stroke-width="2" d="M344,-625C344,-625 224,-625 224,-625 218,-625 212,-619 212,-613 212,-613 212,-551 212,-551 212,-545 218,-539 224,-539 224,-539 344,-539 344,-539 350,-539 356,-545 356,-551 356,-551 356,-613 356,-613 356,-619 350,-625 344,-625"/>
<text text-anchor="middle" x="284" y="-612.5" font-family="Arial" font-size="10.00">🔄 product_performance</text>
<text text-anchor="middle" x="284" y="-601.5" font-family="Arial" font-size="10.00">📋 category_id</text>
<text text-anchor="middle" x="284" y="-590.5" font-family="Arial" font-size="10.00"> &#160;&#160;product_name</text>
<text text-anchor="middle" x="284" y="-579.5" font-family="Arial" font-size="10.00"> &#160;&#160;total_revenue</text>
<text text-anchor="middle" x="284" y="-568.5" font-family="Arial" font-size="10.00"> &#160;&#160;order_frequency</text>
<text text-anchor="middle" x="284" y="-557.5" font-family="Arial" font-size="10.00"> &#160;&#160;... (+2)</text>
<text text-anchor="middle" x="284" y="-546.5" font-family="Arial" font-size="10.00">🔗 3 deps</text>
</g>
<!-- top_products -->
<g id="node4" class="node">
<title>top_products</title>
<path fill="#e8f5e8" stroke="#388e3c" stroke-width="2" d="M592,-625C592,-625 472,-625 472,-625 466,-625 460,-619 460,-613 460,-613 460,-551 460,-551 460,-545 466,-539 472,-539 472,-539 592,-539 592,-539 598,-539 604,-545 604,-551 604,-551 604,-613 604,-613 604,-619 598,-625 592,-625"/>
<text text-anchor="middle" x="532" y="-612.5" font-family="Arial" font-size="10.00">🔄 top_products</text>
<text text-anchor="middle" x="532" y="-601.5" font-family="Arial" font-size="10.00">📋 category_name</text>
<text text-anchor="middle" x="532" y="-590.5" font-family="Arial" font-size="10.00"> &#160;&#160;rank_in_category</text>
<text text-anchor="middle" x="532" y="-579.5" font-family="Arial" font-size="10.00"> &#160;&#160;product_name</text>
<text text-anchor="middle" x="532" y="-568.5" font-family="Arial" font-size="10.00"> &#160;&#160;total_revenue</text>
<text text-anchor="middle" x="532" y="-557.5" font-family="Arial" font-size="10.00"> &#160;&#160;... (+2)</text>
<text text-anchor="middle" x="532" y="-546.5" font-family="Arial" font-size="10.00">🔗 2 deps</text>
</g>
<!-- product_performance&#45;&gt;top_products -->
<g id="edge7" class="edge">
<title>product_performance&#45;&gt;top_products</title>
<path fill="none" stroke="#388e3c" d="M356.07,-582C356.07,-582 451.76,-582 451.76,-582"/>
<polygon fill="#388e3c" stroke="#388e3c" points="451.76,-584.8 459.76,-582 451.76,-579.2 451.76,-584.8"/>
</g>
<!-- customer_product_affinity -->
<g id="node5" class="node">
<title>customer_product_affinity</title>
<path fill="#e8f5e8" stroke="#388e3c" stroke-width="2" d="M858,-708C858,-708 702,-708 702,-708 696,-708 690,-702 690,-696 690,-696 690,-612 690,-612 690,-606 696,-600 702,-600 702,-600 858,-600 858,-600 864,-600 870,-606 870,-612 870,-612 870,-696 870,-696 870,-702 864,-708 858,-708"/>
<text text-anchor="middle" x="780" y="-684.5" font-family="Arial" font-size="10.00">🔄 customer_product_affinity</text>
<text text-anchor="middle" x="780" y="-673.5" font-family="Arial" font-size="10.00">📋 customer_id</text>
<text text-anchor="middle" x="780" y="-662.5" font-family="Arial" font-size="10.00"> &#160;&#160;customer_tier</text>
<text text-anchor="middle" x="780" y="-651.5" font-family="Arial" font-size="10.00"> &#160;&#160;category_name</text>
<text text-anchor="middle" x="780" y="-640.5" font-family="Arial" font-size="10.00"> &#160;&#160;purchased_quantity</text>
<text text-anchor="middle" x="780" y="-629.5" font-family="Arial" font-size="10.00"> &#160;&#160;... (+3)</text>
<text text-anchor="middle" x="780" y="-618.5" font-family="Arial" font-size="10.00">🔗 4 deps</text>
</g>
<!-- high_value_customers&#45;&gt;customer_product_affinity -->
<g id="edge9" class="edge">
<title>high_value_customers&#45;&gt;customer_product_affinity</title>
<path fill="none" stroke="#388e3c" d="M597.16,-695.75C597.16,-695.75 681.64,-695.75 681.64,-695.75"/>
<polygon fill="#388e3c" stroke="#388e3c" points="681.64,-698.55 689.64,-695.75 681.64,-692.95 681.64,-698.55"/>
</g>
<!-- top_products&#45;&gt;customer_product_affinity -->
<g id="edge12" class="edge">
<title>top_products&#45;&gt;customer_product_affinity</title>
<path fill="none" stroke="#388e3c" d="M604.07,-612.5C604.07,-612.5 681.66,-612.5 681.66,-612.5"/>
<polygon fill="#388e3c" stroke="#388e3c" points="681.66,-615.3 689.66,-612.5 681.66,-609.7 681.66,-615.3"/>
</g>
<!-- customers -->
<g id="node6" class="node">
<title>customers</title>
<path fill="#e3f2fd" stroke="#1976d2" stroke-width="2" d="M96,-604C96,-604 12,-604 12,-604 6,-604 0,-598 0,-592 0,-592 0,-544 0,-544 0,-538 6,-532 12,-532 12,-532 96,-532 96,-532 102,-532 108,-538 108,-544 108,-544 108,-592 108,-592 108,-598 102,-604 96,-604"/>
<text text-anchor="middle" x="54" y="-571" font-family="Arial" font-size="10.00">📋 c</text>
<text text-anchor="middle" x="54" y="-560" font-family="Arial" font-size="10.00">(customers)</text>
</g>
<!-- customers&#45;&gt;customer_metrics -->
<g id="edge2" class="edge">
<title>customers&#45;&gt;customer_metrics</title>
<path fill="none" stroke="#388e3c" d="M108.08,-587.75C126.72,-587.75 143,-587.75 143,-587.75 143,-587.75 143,-700 143,-700 143,-700 203.85,-700 203.85,-700"/>
<polygon fill="#388e3c" stroke="#388e3c" points="203.85,-702.8 211.85,-700 203.85,-697.2 203.85,-702.8"/>
</g>
<!-- subquery_0_0 -->
<g id="node12" class="node">
<title>subquery_0_0</title>
<path fill="#fff3e0" stroke="#f57c00" stroke-width="2" d="M362,-337C362,-337 206,-337 206,-337 200,-337 194,-331 194,-325 194,-325 194,-241 194,-241 194,-235 200,-229 206,-229 206,-229 362,-229 362,-229 368,-229 374,-235 374,-241 374,-241 374,-325 374,-325 374,-331 368,-337 362,-337"/>
<text text-anchor="middle" x="284" y="-313.5" font-family="Arial" font-size="10.00">📊 regional_stats</text>
<text text-anchor="middle" x="284" y="-302.5" font-family="Arial" font-size="10.00">(subquery_0_0)</text>
<text text-anchor="middle" x="284" y="-291.5" font-family="Arial" font-size="10.00">📋 avg_category_revenue</text>
<text text-anchor="middle" x="284" y="-280.5" font-family="Arial" font-size="10.00"> &#160;&#160;customer_id</text>
<text text-anchor="middle" x="284" y="-269.5" font-family="Arial" font-size="10.00"> &#160;&#160;region_name</text>
<text text-anchor="middle" x="284" y="-258.5" font-family="Arial" font-size="10.00"> &#160;&#160;category_name</text>
<text text-anchor="middle" x="284" y="-247.5" font-family="Arial" font-size="10.00">🔗 6 deps</text>
</g>
<!-- customers&#45;&gt;subquery_0_0 -->
<g id="edge13" class="edge">
<title>customers&#45;&gt;subquery_0_0</title>
<path fill="none" stroke="#f57c00" stroke-dasharray="5,2" d="M108.21,-535.5C150.82,-535.5 203,-535.5 203,-535.5 203,-535.5 203,-345.17 203,-345.17"/>
<polygon fill="#f57c00" stroke="#f57c00" points="205.8,-345.17 203,-337.17 200.2,-345.17 205.8,-345.17"/>
</g>
<!-- regions -->
<g id="node7" class="node">
<title>regions</title>
<path fill="#e3f2fd" stroke="#1976d2" stroke-width="2" d="M96,-214C96,-214 12,-214 12,-214 6,-214 0,-208 0,-202 0,-202 0,-154 0,-154 0,-148 6,-142 12,-142 12,-142 96,-142 96,-142 102,-142 108,-148 108,-154 108,-154 108,-202 108,-202 108,-208 102,-214 96,-214"/>
<text text-anchor="middle" x="54" y="-181" font-family="Arial" font-size="10.00">📋 r</text>
<text text-anchor="middle" x="54" y="-170" font-family="Arial" font-size="10.00">(regions)</text>
</g>
<!-- regions&#45;&gt;subquery_0_0 -->
<g id="edge18" class="edge">
<title>regions&#45;&gt;subquery_0_0</title>
<path fill="none" stroke="#f57c00" stroke-dasharray="5,2" d="M54,-214.25C54,-232.38 54,-250.5 54,-250.5 54,-250.5 185.76,-250.5 185.76,-250.5"/>
<polygon fill="#f57c00" stroke="#f57c00" points="185.76,-253.3 193.76,-250.5 185.76,-247.7 185.76,-253.3"/>
</g>
<!-- orders -->
<g id="node8" class="node">
<title>orders</title>
<path fill="#e3f2fd" stroke="#1976d2" stroke-width="2" d="M96,-734C96,-734 12,-734 12,-734 6,-734 0,-728 0,-722 0,-722 0,-674 0,-674 0,-668 6,-662 12,-662 12,-662 96,-662 96,-662 102,-662 108,-668 108,-674 108,-674 108,-722 108,-722 108,-728 102,-734 96,-734"/>
<text text-anchor="middle" x="54" y="-701" font-family="Arial" font-size="10.00">📋 o</text>
<text text-anchor="middle" x="54" y="-690" font-family="Arial" font-size="10.00">(orders)</text>
</g>
<!-- orders&#45;&gt;customer_metrics -->
<g id="edge1" class="edge">
<title>orders&#45;&gt;customer_metrics</title>
<path fill="none" stroke="#388e3c" d="M108.22,-717C108.22,-717 203.86,-717 203.86,-717"/>
<polygon fill="#388e3c" stroke="#388e3c" points="203.86,-719.8 211.86,-717 203.86,-714.2 203.86,-719.8"/>
</g>
<!-- orders&#45;&gt;product_performance -->
<g id="edge4" class="edge">
<title>orders&#45;&gt;product_performance</title>
<path fill="none" stroke="#388e3c" d="M54,-661.62C54,-639.12 54,-614.5 54,-614.5 54,-614.5 203.86,-614.5 203.86,-614.5"/>
<polygon fill="#388e3c" stroke="#388e3c" points="203.86,-617.3 211.86,-614.5 203.86,-611.7 203.86,-617.3"/>
</g>
<!-- orders&#45;&gt;customer_product_affinity -->
<g id="edge10" class="edge">
<title>orders&#45;&gt;customer_product_affinity</title>
<path fill="none" stroke="#388e3c" d="M108.27,-677.75C108.27,-677.75 681.8,-677.75 681.8,-677.75"/>
<polygon fill="#388e3c" stroke="#388e3c" points="681.8,-680.55 689.8,-677.75 681.8,-674.95 681.8,-680.55"/>
</g>
<!-- orders&#45;&gt;subquery_0_0 -->
<g id="edge17" class="edge">
<title>orders&#45;&gt;subquery_0_0</title>
<path fill="none" stroke="#f57c00" stroke-dasharray="5,2" d="M108.29,-672.5C152.63,-672.5 208,-672.5 208,-672.5 208,-672.5 208,-345.16 208,-345.16"/>
<polygon fill="#f57c00" stroke="#f57c00" points="210.8,-345.16 208,-337.16 205.2,-345.16 210.8,-345.16"/>
</g>
<!-- subquery_0_1 -->
<g id="node13" class="node">
<title>subquery_0_1</title>
<path fill="#fff3e0" stroke="#f57c00" stroke-width="2" d="M344,-481C344,-481 224,-481 224,-481 218,-481 212,-475 212,-469 212,-469 212,-407 212,-407 212,-401 218,-395 224,-395 224,-395 344,-395 344,-395 350,-395 356,-401 356,-407 356,-407 356,-469 356,-469 356,-475 350,-481 344,-481"/>
<text text-anchor="middle" x="284" y="-468.5" font-family="Arial" font-size="10.00">📊 seasonal_data</text>
<text text-anchor="middle" x="284" y="-457.5" font-family="Arial" font-size="10.00">(subquery_0_1)</text>
<text text-anchor="middle" x="284" y="-446.5" font-family="Arial" font-size="10.00">📋 season</text>
<text text-anchor="middle" x="284" y="-435.5" font-family="Arial" font-size="10.00"> &#160;&#160;season_rank</text>
<text text-anchor="middle" x="284" y="-424.5" font-family="Arial" font-size="10.00"> &#160;&#160;seasonal_quantity</text>
<text text-anchor="middle" x="284" y="-413.5" font-family="Arial" font-size="10.00"> &#160;&#160;product_name</text>
<text text-anchor="middle" x="284" y="-402.5" font-family="Arial" font-size="10.00">🔗 3 deps</text>
</g>
<!-- orders&#45;&gt;subquery_0_1 -->
<g id="edge20" class="edge">
<title>orders&#45;&gt;subquery_0_1</title>
<path fill="none" stroke="#f57c00" stroke-dasharray="5,2" d="M108.2,-667.25C118.43,-667.25 126,-667.25 126,-667.25 126,-667.25 126,-477.5 126,-477.5 126,-477.5 203.94,-477.5 203.94,-477.5"/>
<polygon fill="#f57c00" stroke="#f57c00" points="203.94,-480.3 211.94,-477.5 203.94,-474.7 203.94,-480.3"/>
</g>
<!-- order_items -->
<g id="node9" class="node">
<title>order_items</title>
<path fill="#e3f2fd" stroke="#1976d2" stroke-width="2" d="M96,-344C96,-344 12,-344 12,-344 6,-344 0,-338 0,-332 0,-332 0,-284 0,-284 0,-278 6,-272 12,-272 12,-272 96,-272 96,-272 102,-272 108,-278 108,-284 108,-284 108,-332 108,-332 108,-338 102,-344 96,-344"/>
<text text-anchor="middle" x="54" y="-311" font-family="Arial" font-size="10.00">📋 oi</text>
<text text-anchor="middle" x="54" y="-300" font-family="Arial" font-size="10.00">(order_items)</text>
</g>
<!-- order_items&#45;&gt;product_performance -->
<g id="edge3" class="edge">
<title>order_items&#45;&gt;product_performance</title>
<path fill="none" stroke="#388e3c" d="M108.31,-341.67C141.26,-341.67 177,-341.67 177,-341.67 177,-341.67 177,-555.25 177,-555.25 177,-555.25 203.74,-555.25 203.74,-555.25"/>
<polygon fill="#388e3c" stroke="#388e3c" points="203.74,-558.05 211.74,-555.25 203.74,-552.45 203.74,-558.05"/>
</g>
<!-- order_items&#45;&gt;customer_product_affinity -->
<g id="edge11" class="edge">
<title>order_items&#45;&gt;customer_product_affinity</title>
<path fill="none" stroke="#388e3c" d="M108.27,-339.33C276.82,-339.33 780,-339.33 780,-339.33 780,-339.33 780,-591.91 780,-591.91"/>
<polygon fill="#388e3c" stroke="#388e3c" points="777.2,-591.91 780,-599.91 782.8,-591.91 777.2,-591.91"/>
</g>
<!-- order_items&#45;&gt;subquery_0_0 -->
<g id="edge15" class="edge">
<title>order_items&#45;&gt;subquery_0_0</title>
<path fill="none" stroke="#f57c00" stroke-dasharray="5,2" d="M108.22,-304.5C108.22,-304.5 185.72,-304.5 185.72,-304.5"/>
<polygon fill="#f57c00" stroke="#f57c00" points="185.72,-307.3 193.72,-304.5 185.72,-301.7 185.72,-307.3"/>
</g>
<!-- order_items&#45;&gt;subquery_0_1 -->
<g id="edge19" class="edge">
<title>order_items&#45;&gt;subquery_0_1</title>
<path fill="none" stroke="#f57c00" stroke-dasharray="5,2" d="M54,-344.03C54,-369.27 54,-398.5 54,-398.5 54,-398.5 203.86,-398.5 203.86,-398.5"/>
<polygon fill="#f57c00" stroke="#f57c00" points="203.86,-401.3 211.86,-398.5 203.86,-395.7 203.86,-401.3"/>
</g>
<!-- products -->
<g id="node10" class="node">
<title>products</title>
<path fill="#e3f2fd" stroke="#1976d2" stroke-width="2" d="M96,-474C96,-474 12,-474 12,-474 6,-474 0,-468 0,-462 0,-462 0,-414 0,-414 0,-408 6,-402 12,-402 12,-402 96,-402 96,-402 102,-402 108,-408 108,-414 108,-414 108,-462 108,-462 108,-468 102,-474 96,-474"/>
<text text-anchor="middle" x="54" y="-441" font-family="Arial" font-size="10.00">📋 p</text>
<text text-anchor="middle" x="54" y="-430" font-family="Arial" font-size="10.00">(products)</text>
</g>
<!-- products&#45;&gt;product_performance -->
<g id="edge5" class="edge">
<title>products&#45;&gt;product_performance</title>
<path fill="none" stroke="#388e3c" d="M108.24,-438C134.32,-438 160,-438 160,-438 160,-438 160,-571.5 160,-571.5 160,-571.5 203.87,-571.5 203.87,-571.5"/>
<polygon fill="#388e3c" stroke="#388e3c" points="203.87,-574.3 211.87,-571.5 203.87,-568.7 203.87,-574.3"/>
</g>
<!-- products&#45;&gt;subquery_0_0 -->
<g id="edge14" class="edge">
<title>products&#45;&gt;subquery_0_0</title>
<path fill="none" stroke="#f57c00" stroke-dasharray="5,2" d="M108.41,-420C149.55,-420 199,-420 199,-420 199,-420 199,-345.15 199,-345.15"/>
<polygon fill="#f57c00" stroke="#f57c00" points="201.8,-345.15 199,-337.15 196.2,-345.15 201.8,-345.15"/>
</g>
<!-- products&#45;&gt;subquery_0_1 -->
<g id="edge21" class="edge">
<title>products&#45;&gt;subquery_0_1</title>
<path fill="none" stroke="#f57c00" stroke-dasharray="5,2" d="M108.22,-456C108.22,-456 203.86,-456 203.86,-456"/>
<polygon fill="#f57c00" stroke="#f57c00" points="203.86,-458.8 211.86,-456 203.86,-453.2 203.86,-458.8"/>
</g>
<!-- categories -->
<g id="node11" class="node">
<title>categories</title>
<path fill="#e3f2fd" stroke="#1976d2" stroke-width="2" d="M96,-72C96,-72 12,-72 12,-72 6,-72 0,-66 0,-60 0,-60 0,-12 0,-12 0,-6 6,0 12,0 12,0 96,0 96,0 102,0 108,-6 108,-12 108,-12 108,-60 108,-60 108,-66 102,-72 96,-72"/>
<text text-anchor="middle" x="54" y="-39" font-family="Arial" font-size="10.00">📋 cat</text>
<text text-anchor="middle" x="54" y="-28" font-family="Arial" font-size="10.00">(categories)</text>
</g>
<!-- categories&#45;&gt;top_products -->
<g id="edge8" class="edge">
<title>categories&#45;&gt;top_products</title>
<path fill="none" stroke="#388e3c" d="M108.37,-24C233.65,-24 532,-24 532,-24 532,-24 532,-530.68 532,-530.68"/>
<polygon fill="#388e3c" stroke="#388e3c" points="529.2,-530.68 532,-538.68 534.8,-530.68 529.2,-530.68"/>
</g>
<!-- categories&#45;&gt;subquery_0_0 -->
<g id="edge16" class="edge">
<title>categories&#45;&gt;subquery_0_0</title>
<path fill="none" stroke="#f57c00" stroke-dasharray="5,2" d="M108.22,-48C176.21,-48 284,-48 284,-48 284,-48 284,-220.79 284,-220.79"/>
<polygon fill="#f57c00" stroke="#f57c00" points="281.2,-220.79 284,-228.79 286.8,-220.79 281.2,-220.79"/>
</g>
</g>
</svg>
