<?xml version="1.0" encoding="UTF-8" standalone="no"?>
<!DOCTYPE svg PUBLIC "-//W3C//DTD SVG 1.1//EN"
 "http://www.w3.org/Graphics/SVG/1.1/DTD/svg11.dtd">
<!-- Generated by graphviz version 2.43.0 (0)
 -->
<!-- Title: %3 Pages: 1 -->
<svg width="2127pt" height="159pt"
 viewBox="0.00 0.00 2127.00 159.00" xmlns="http://www.w3.org/2000/svg" xmlns:xlink="http://www.w3.org/1999/xlink">
<g id="graph0" class="graph" transform="scale(1 1) rotate(0) translate(4 155)">
<title>%3</title>
<polygon fill="white" stroke="transparent" points="-4,4 -4,-155 2123,-155 2123,4 -4,4"/>
<text text-anchor="middle" x="1059.5" y="-135.8" font-family="Arial" font-size="14.00">SQL Join Analysis</text>
<text text-anchor="middle" x="1059.5" y="-120.8" font-family="Arial" font-size="14.00">6 Tables, 5 Joins</text>
<text text-anchor="middle" x="1059.5" y="-105.8" font-family="Arial" font-size="14.00">INNER: 2, LEFT: 2, RIGHT: 1</text>
<!-- c -->
<g id="node1" class="node">
<title>c</title>
<polygon fill="lightblue" stroke="black" points="146,-90.5 0,-90.5 0,-7.5 146,-7.5 146,-90.5"/>
<text text-anchor="middle" x="73" y="-75.3" font-family="Arial" font-size="14.00">📋 c</text>
<text text-anchor="middle" x="73" y="-60.3" font-family="Arial" font-size="14.00">(customers)</text>
<text text-anchor="middle" x="73" y="-45.3" font-family="Arial" font-size="14.00">===============</text>
<text text-anchor="middle" x="73" y="-30.3" font-family="Arial" font-size="14.00">🔑 JOIN COLUMNS:</text>
<text text-anchor="middle" x="73" y="-15.3" font-family="Arial" font-size="14.00"> &#160;• customer_id</text>
</g>
<!-- o -->
<g id="node2" class="node">
<title>o</title>
<polygon fill="lightblue" stroke="black" points="555,-98 409,-98 409,0 555,0 555,-98"/>
<text text-anchor="middle" x="482" y="-82.8" font-family="Arial" font-size="14.00">📋 o</text>
<text text-anchor="middle" x="482" y="-67.8" font-family="Arial" font-size="14.00">(orders)</text>
<text text-anchor="middle" x="482" y="-52.8" font-family="Arial" font-size="14.00">===============</text>
<text text-anchor="middle" x="482" y="-37.8" font-family="Arial" font-size="14.00">🔑 JOIN COLUMNS:</text>
<text text-anchor="middle" x="482" y="-22.8" font-family="Arial" font-size="14.00"> &#160;• customer_id</text>
<text text-anchor="middle" x="482" y="-7.8" font-family="Arial" font-size="14.00"> &#160;• order_id</text>
</g>
<!-- c&#45;&gt;o -->
<g id="edge1" class="edge">
<title>c&#45;&gt;o</title>
<path fill="none" stroke="#1976d2" stroke-width="3" d="M146.12,-49C146.12,-49 398.82,-49 398.82,-49"/>
<polygon fill="#1976d2" stroke="#1976d2" stroke-width="3" points="398.82,-52.5 408.82,-49 398.82,-45.5 398.82,-52.5"/>
<text text-anchor="middle" x="277.5" y="-63" font-family="Arial" font-size="10.00">INNER JOIN</text>
<text text-anchor="middle" x="277.5" y="-52" font-family="Arial" font-size="10.00">customer_id = customer_id</text>
</g>
<!-- oi -->
<g id="node3" class="node">
<title>oi</title>
<polygon fill="lightblue" stroke="black" points="927,-98 781,-98 781,0 927,0 927,-98"/>
<text text-anchor="middle" x="854" y="-82.8" font-family="Arial" font-size="14.00">📋 oi</text>
<text text-anchor="middle" x="854" y="-67.8" font-family="Arial" font-size="14.00">(order_items)</text>
<text text-anchor="middle" x="854" y="-52.8" font-family="Arial" font-size="14.00">===============</text>
<text text-anchor="middle" x="854" y="-37.8" font-family="Arial" font-size="14.00">🔑 JOIN COLUMNS:</text>
<text text-anchor="middle" x="854" y="-22.8" font-family="Arial" font-size="14.00"> &#160;• order_id</text>
<text text-anchor="middle" x="854" y="-7.8" font-family="Arial" font-size="14.00"> &#160;• product_id</text>
</g>
<!-- o&#45;&gt;oi -->
<g id="edge2" class="edge">
<title>o&#45;&gt;oi</title>
<path fill="none" stroke="#4caf50" stroke-width="2" d="M555.05,-49C555.05,-49 770.8,-49 770.8,-49"/>
<polygon fill="#4caf50" stroke="#4caf50" stroke-width="2" points="770.8,-52.5 780.8,-49 770.8,-45.5 770.8,-52.5"/>
<text text-anchor="middle" x="668" y="-63" font-family="Arial" font-size="10.00">LEFT JOIN</text>
<text text-anchor="middle" x="668" y="-52" font-family="Arial" font-size="10.00">order_id = order_id</text>
</g>
<!-- p -->
<g id="node4" class="node">
<title>p</title>
<polygon fill="lightblue" stroke="black" points="1320,-98 1174,-98 1174,0 1320,0 1320,-98"/>
<text text-anchor="middle" x="1247" y="-82.8" font-family="Arial" font-size="14.00">📋 p</text>
<text text-anchor="middle" x="1247" y="-67.8" font-family="Arial" font-size="14.00">(products)</text>
<text text-anchor="middle" x="1247" y="-52.8" font-family="Arial" font-size="14.00">===============</text>
<text text-anchor="middle" x="1247" y="-37.8" font-family="Arial" font-size="14.00">🔑 JOIN COLUMNS:</text>
<text text-anchor="middle" x="1247" y="-22.8" font-family="Arial" font-size="14.00"> &#160;• product_id</text>
<text text-anchor="middle" x="1247" y="-7.8" font-family="Arial" font-size="14.00"> &#160;• category_id</text>
</g>
<!-- oi&#45;&gt;p -->
<g id="edge3" class="edge">
<title>oi&#45;&gt;p</title>
<path fill="none" stroke="#1976d2" stroke-width="3" d="M927.46,-49C927.46,-49 1163.9,-49 1163.9,-49"/>
<polygon fill="#1976d2" stroke="#1976d2" stroke-width="3" points="1163.9,-52.5 1173.9,-49 1163.9,-45.5 1163.9,-52.5"/>
<text text-anchor="middle" x="1050.5" y="-63" font-family="Arial" font-size="10.00">INNER JOIN</text>
<text text-anchor="middle" x="1050.5" y="-52" font-family="Arial" font-size="10.00">product_id = product_id</text>
</g>
<!-- cat -->
<g id="node5" class="node">
<title>cat</title>
<polygon fill="lightblue" stroke="black" points="1723,-98 1577,-98 1577,0 1723,0 1723,-98"/>
<text text-anchor="middle" x="1650" y="-82.8" font-family="Arial" font-size="14.00">📋 cat</text>
<text text-anchor="middle" x="1650" y="-67.8" font-family="Arial" font-size="14.00">(categories)</text>
<text text-anchor="middle" x="1650" y="-52.8" font-family="Arial" font-size="14.00">===============</text>
<text text-anchor="middle" x="1650" y="-37.8" font-family="Arial" font-size="14.00">🔑 JOIN COLUMNS:</text>
<text text-anchor="middle" x="1650" y="-22.8" font-family="Arial" font-size="14.00"> &#160;• category_id</text>
<text text-anchor="middle" x="1650" y="-7.8" font-family="Arial" font-size="14.00"> &#160;• supplier_id</text>
</g>
<!-- p&#45;&gt;cat -->
<g id="edge4" class="edge">
<title>p&#45;&gt;cat</title>
<path fill="none" stroke="#ff9800" stroke-width="2" d="M1320.45,-49C1320.45,-49 1566.72,-49 1566.72,-49"/>
<polygon fill="#ff9800" stroke="#ff9800" stroke-width="2" points="1566.72,-52.5 1576.72,-49 1566.72,-45.5 1566.72,-52.5"/>
<text text-anchor="middle" x="1448.5" y="-63" font-family="Arial" font-size="10.00">RIGHT JOIN</text>
<text text-anchor="middle" x="1448.5" y="-52" font-family="Arial" font-size="10.00">category_id = category_id</text>
</g>
<!-- s -->
<g id="node6" class="node">
<title>s</title>
<polygon fill="lightblue" stroke="black" points="2119,-90.5 1973,-90.5 1973,-7.5 2119,-7.5 2119,-90.5"/>
<text text-anchor="middle" x="2046" y="-75.3" font-family="Arial" font-size="14.00">📋 s</text>
<text text-anchor="middle" x="2046" y="-60.3" font-family="Arial" font-size="14.00">(suppliers)</text>
<text text-anchor="middle" x="2046" y="-45.3" font-family="Arial" font-size="14.00">===============</text>
<text text-anchor="middle" x="2046" y="-30.3" font-family="Arial" font-size="14.00">🔑 JOIN COLUMNS:</text>
<text text-anchor="middle" x="2046" y="-15.3" font-family="Arial" font-size="14.00"> &#160;• supplier_id</text>
</g>
<!-- cat&#45;&gt;s -->
<g id="edge5" class="edge">
<title>cat&#45;&gt;s</title>
<path fill="none" stroke="#4caf50" stroke-width="2" d="M1723.09,-49C1723.09,-49 1963,-49 1963,-49"/>
<polygon fill="#4caf50" stroke="#4caf50" stroke-width="2" points="1963,-52.5 1973,-49 1963,-45.5 1963,-52.5"/>
<text text-anchor="middle" x="1848" y="-63" font-family="Arial" font-size="10.00">LEFT JOIN</text>
<text text-anchor="middle" x="1848" y="-52" font-family="Arial" font-size="10.00">supplier_id = supplier_id</text>
</g>
</g>
</svg>
